<svg xmlns="http://www.w3.org/2000/svg" viewBox="0 0 521 141">
<path d="M 480,59 L 491,59 Z" fill="rgb(255,255,255)" stroke="none"/>
<path d="M 510,0 L 510,4 L 511,6 L 515,10 L 516,12 L 516,17 L 517,18 L 516,28 L 514,32 L 510,37 L 510,57 L 509,58 L 493,58 L 510,58 L 510,37 L 515,31 L 515,29 L 516,28 L 516,24 L 517,23 L 516,12 L 514,8 L 510,4 Z" fill="rgb(43,43,43)" stroke="none"/>
<path d="M 479,0 L 479,56 L 480,57 L 491,57 L 491,0 L 491,56 L 490,57 L 480,57 L 479,56 Z" fill="rgb(139,139,139)" stroke="none"/>
<path d="M 413,0 L 413,35 L 415,35 L 415,0 L 415,34 L 414,35 L 413,34 Z" fill="rgb(3,3,3)" stroke="none"/>
<path d="M 399,0 L 399,37 L 400,38 L 400,41 L 401,42 L 401,44 L 403,48 L 408,54 L 413,56 L 415,58 L 478,58 L 415,58 L 413,56 L 410,55 L 402,46 L 401,42 L 400,41 L 400,38 L 399,37 Z" fill="rgb(104,104,104)" stroke="none"/>
<path d="M 278,0 L 278,138 L 279,139 L 376,139 L 376,82 L 375,81 L 375,0 L 375,81 L 376,82 L 376,138 L 375,139 L 279,139 L 278,138 Z" fill="rgb(238,185,108)" stroke="none"/>
<path d="M 60,0 L 60,138 L 61,139 L 248,139 L 248,0 L 248,138 L 247,139 L 61,139 L 60,138 Z" fill="rgb(236,177,91)" stroke="none"/>
<path d="M 30,0 L 30,138 L 29,139 L 0,139 L 30,139 Z" fill="rgb(229,144,22)" stroke="none"/>
</svg>