<svg xmlns="http://www.w3.org/2000/svg" viewBox="0 0 860 141">
<path d="M 399,81 L 399,140 L 399,81 L 401,79 L 846,79 L 848,81 L 847,83 L 847,140 L 847,83 L 848,82 L 848,80 L 846,79 L 401,79 Z" fill="rgb(228,227,227)" stroke="none"/>
<path d="M 480,59 L 491,59 Z" fill="rgb(255,255,255)" stroke="none"/>
<path d="M 511,0 L 511,5 L 516,12 L 516,17 L 517,18 L 516,28 L 511,36 L 511,57 L 510,58 L 493,58 L 511,58 L 511,36 L 515,31 L 515,29 L 516,28 L 516,24 L 517,23 L 516,12 L 514,8 L 511,5 Z" fill="rgb(37,37,37)" stroke="none"/>
<path d="M 479,0 L 479,56 L 480,57 L 491,57 L 491,0 L 491,56 L 490,57 L 480,57 L 479,56 Z" fill="rgb(139,139,139)" stroke="none"/>
<path d="M 399,0 L 399,57 L 400,58 L 478,58 L 400,58 L 399,57 Z" fill="rgb(107,107,107)" stroke="none"/>
<path d="M 278,0 L 278,138 L 279,139 L 376,139 L 376,82 L 375,81 L 375,0 L 375,81 L 376,82 L 376,138 L 375,139 L 279,139 L 278,138 Z" fill="rgb(238,185,108)" stroke="none"/>
<path d="M 60,0 L 60,138 L 61,139 L 248,139 L 248,0 L 248,138 L 247,139 L 61,139 L 60,138 Z" fill="rgb(236,177,91)" stroke="none"/>
<path d="M 30,0 L 30,138 L 29,139 L 0,139 L 30,139 Z" fill="rgb(229,144,22)" stroke="none"/>
</svg>